<svg id="ehh46vy8odcj1" xmlns="http://www.w3.org/2000/svg" xmlns:xlink="http://www.w3.org/1999/xlink" viewBox="0 0 379 175" shape-rendering="geometricPrecision" text-rendering="geometricPrecision"><style><![CDATA[#ehh46vy8odcj35_to {animation: ehh46vy8odcj35_to__to 8000ms linear infinite normal forwards}@keyframes ehh46vy8odcj35_to__to { 0% {transform: translate(-4.891155px,4.102687px)} 16% {transform: translate(-4.891155px,4.140187px)} 16.333333% {transform: translate(-7.698566px,4.131872px)} 21.666667% {transform: translate(1.643640px,0.640851px)} 50.666667% {transform: translate(1.643640px,0.640851px)} 54.666667% {transform: translate(-3.575583px,4.102687px)} 76.666667% {transform: translate(-3.575583px,4.102687px)} 80% {transform: translate(-16.857461px,4.102687px)} 82% {transform: translate(-14.201085px,4.102687px)} 88.333333% {transform: translate(-14.201085px,4.102687px)} 89% {transform: translate(2.516353px,5.277279px)} 100% {transform: translate(2.516353px,5.277279px)} }#ehh46vy8odcj36_to {animation: ehh46vy8odcj36_to__to 8000ms linear infinite normal forwards}@keyframes ehh46vy8odcj36_to__to { 0% {transform: translate(-3.649679px,5.979292px)} 16% {transform: translate(-3.649679px,6.016792px)} 16.333333% {transform: translate(-6.457089px,6.008477px)} 21.666667% {transform: translate(2.885117px,2.517457px)} 50.666667% {transform: translate(2.885117px,2.517457px)} 54.666667% {transform: translate(-2.334106px,5.979292px)} 76.666667% {transform: translate(-2.334106px,5.979292px)} 80% {transform: translate(-15.615984px,5.979292px)} 81.666667% {transform: translate(-12.959609px,5.979292px)} 88.333333% {transform: translate(-12.959609px,5.979292px)} 89% {transform: translate(3.757829px,7.153884px)} 100% {transform: translate(3.757829px,7.153884px)} }]]></style><g id="ehh46vy8odcj2"><g id="ehh46vy8odcj3"><g id="ehh46vy8odcj4"><g id="ehh46vy8odcj5"><g id="ehh46vy8odcj6"><g id="ehh46vy8odcj7"><polygon id="ehh46vy8odcj8" points="14.300000,54.600000 21.500000,54.200000 22.200000,50 1.700000,37.600000 6,59.500000 13.400000,61.800000" fill="rgb(0,196,125)" stroke="none" stroke-width="1"/><g id="ehh46vy8odcj9"><g id="ehh46vy8odcj10"><path id="ehh46vy8odcj11" d="M24.200000,52.100000L23.500000,56.500000L16.300000,56.900000L15.400000,64.500000L7.300000,62L7.400000,62.400000L54.600000,131.200000L70.900000,120.200000L24.200000,52.100000Z" fill="rgb(0,0,0)" stroke="none" stroke-width="1"/></g></g></g><g id="ehh46vy8odcj12"><g id="ehh46vy8odcj13"><g id="ehh46vy8odcj14"><ellipse id="ehh46vy8odcj15" rx="24.200000" ry="18.300000" transform="matrix(0.00478599999998 -1 1 0.00478599999998 36.25873179999932 104.60861559999805)" fill="rgb(0,0,0)" stroke="none" stroke-width="1"/><path id="ehh46vy8odcj16" d="M31.600000,87.700000C31.600000,87.700000,13.200000,102.900000,31.700000,122.200000" fill="none" stroke="rgb(255,255,255)" stroke-width="4.277800" stroke-linecap="round" stroke-miterlimit="10"/></g><g id="ehh46vy8odcj17"><ellipse id="ehh46vy8odcj18" rx="24.200000" ry="18.300000" transform="matrix(0.00478599999998 -1 1 0.00478599999998 137.40789639999747 105.08700859999806)" fill="rgb(0,0,0)" stroke="none" stroke-width="1"/><path id="ehh46vy8odcj19" d="M142,89.600000C142,89.600000,160.800000,105.500000,139.700000,124" fill="none" stroke="rgb(255,255,255)" stroke-width="4.184300" stroke-linecap="round" stroke-miterlimit="10"/></g><ellipse id="ehh46vy8odcj20" rx="41.200000" ry="45.900000" transform="matrix(0.00478599999998 -1 1 0.00478599999998 87.91838939999839 126.88634339999766)" fill="rgb(0,0,0)" stroke="none" stroke-width="1"/><circle id="ehh46vy8odcj21" r="53.300000" transform="matrix(1 0 0 1 86.80000000000000 86.20000000000000)" fill="rgb(0,0,0)" stroke="none" stroke-width="1"/><ellipse id="ehh46vy8odcj22" rx="17.300000" ry="33.500000" transform="matrix(0.00478599999998 -1 1 0.00478599999998 87.22923919999840 139.31068979999742)" fill="rgb(255,255,255)" stroke="none" stroke-width="1"/><path id="ehh46vy8odcj23" d="M101.200000,70.200000C86.400000,70.100000,74.400000,82,74.400000,96.700000C74.400000,99.100000,80,92.400000,87.400000,93.700000C90.300000,94.200000,92.400000,96.300000,93.600000,99C97.900000,107.800000,104.100000,115,111.400000,121.500000C120.900000,117.500000,127.600000,108.100000,127.700000,97.100000C127.800000,82.200000,115.900000,70.200000,101.200000,70.200000Z" fill="rgb(255,255,255)" stroke="none" stroke-width="1"/><path id="ehh46vy8odcj24" d="M51.300000,118.600000C52.400000,118.500000,53.600000,118.600000,54.600000,118.700000C58.800000,119.100000,63.200000,119,67.100000,117.100000C72,114.700000,75.900000,109.900000,79,105.300000C80.100000,103.700000,80.600000,101.900000,81.400000,100C81.900000,98.800000,81.600000,94.700000,82.800000,94.100000C85.200000,93,89,96.100000,91.800000,96C91.500000,81.600000,80.200000,69.900000,66.200000,69.800000C52,69.700000,40.400000,81.600000,40.300000,96.300000C40.200000,105.700000,44.600000,113.700000,51.300000,118.600000Z" fill="rgb(255,255,255)" stroke="none" stroke-width="1"/><path id="ehh46vy8odcj25" d="M92.400000,135.800000C91.100000,136.300000,90.700000,131.800000,92,130.900000L95.600000,128.500000C96.300000,128,97,129.100000,97.200000,130.800000L97.200000,130.800000C97.300000,132.500000,96.800000,134.200000,96.100000,134.300000L92.400000,135.800000Z" fill="rgb(0,0,0)" stroke="none" stroke-width="1"/><path id="ehh46vy8odcj26" d="M86.600000,135.800000C87.900000,136.300000,88.300000,131.800000,87.100000,130.900000L83.500000,128.500000C82.800000,128,82.100000,129,81.900000,130.800000L81.900000,130.800000C81.800000,132.500000,82.300000,134.200000,83,134.300000L86.600000,135.800000Z" fill="rgb(0,0,0)" stroke="none" stroke-width="1"/><g id="ehh46vy8odcj27"><g id="ehh46vy8odcj28"><path id="ehh46vy8odcj29" d="M35.500000,93.100000C36.300000,93,37.100000,93,37.900000,92.900000C38.200000,92.900000,38.500000,92.600000,38.600000,92.400000C39.600000,89,42,86.900000,45.500000,86.800000C48.700000,86.700000,51.800000,86.700000,55,86.700000C61,86.700000,67,86.800000,73.100000,86.800000C76.200000,86.800000,79.100000,87.500000,81.300000,89.800000C81.500000,90,81.900000,90.100000,82.200000,90.100000C84.300000,90.100000,86.400000,90.100000,88.500000,90.100000C88.800000,90.100000,89.200000,90,89.400000,89.800000C91.400000,87.800000,93.900000,86.900000,96.700000,86.900000C105.800000,86.900000,114.900000,87,124.100000,87C126.800000,87,129.200000,87.900000,130.900000,90.200000C131.400000,90.900000,131.800000,91.900000,132,92.700000C132.200000,93.200000,132.300000,93.400000,132.800000,93.400000C133.400000,93.400000,133.900000,93.400000,134.600000,93.400000C134.600000,95.500000,134.600000,97.500000,134.600000,99.600000C133.600000,99.600000,132.700000,99.600000,131.700000,99.600000C131.300000,102.600000,131,105.500000,130.700000,108.500000C130.500000,110.500000,130.300000,112.400000,129.900000,114.300000C129.100000,117.500000,127.300000,120.100000,123.800000,121C123,121.200000,122.200000,121.300000,121.400000,121.300000C113.800000,121.300000,106.100000,121.200000,98.500000,121.200000C96.700000,121.200000,92,115,91.300000,112.700000C89.700000,107.600000,88.800000,102.300000,88.100000,97C88.100000,96.900000,88.100000,96.800000,88,96.600000C86.300000,96.600000,84.600000,96.600000,82.900000,96.600000C82.500000,99.100000,82.100000,101.700000,81.600000,104.200000C80.900000,108,80,111.800000,78.400000,115.400000C77.700000,116.900000,76.900000,118.200000,75.900000,119.500000C75.100000,120.700000,73.800000,121.100000,72.300000,121.100000C64.800000,121,57.300000,121,49.800000,121C44.600000,121,41.200000,118.100000,40.500000,112.900000C39.900000,108.500000,39.500000,104.200000,39,99.800000C39,99.700000,39,99.500000,38.900000,99.300000C37.800000,99.300000,36.600000,99.300000,35.500000,99.300000C35.400000,97.100000,35.400000,95.100000,35.500000,93.100000ZM60.600000,93.100000C57.300000,93.100000,54.100000,93.100000,50.800000,93.100000C50.200000,93.100000,49.600000,93.100000,49.100000,93.200000C46.800000,93.600000,45.100000,95.700000,45.300000,97.900000C45.700000,102,46.100000,106,46.500000,110.100000C46.800000,113.100000,48.800000,114.800000,51.900000,114.800000C57.500000,114.800000,63.100000,114.800000,68.700000,114.900000C70.400000,114.900000,71.400000,114.300000,72.200000,112.900000C72.500000,112.400000,72.700000,111.900000,72.900000,111.400000C74.700000,107.100000,75.400000,102.500000,75.900000,97.900000C76.100000,96.100000,75.200000,94.600000,73.500000,93.800000C72.600000,93.400000,71.500000,93.200000,70.500000,93.100000C67.200000,93.100000,63.900000,93.100000,60.600000,93.100000ZM110,93.300000C106.600000,93.300000,103.100000,93.200000,99.700000,93.300000C96.200000,93.300000,94.200000,95.600000,94.700000,99C95,101.200000,95.400000,103.500000,95.800000,105.700000C96.300000,108.300000,97,110.900000,98.400000,113.300000C99.100000,114.500000,100.100000,115,101.500000,115C107.100000,115,112.800000,115,118.400000,115.100000C121.600000,115.100000,123.500000,113.500000,123.900000,110.300000C124.300000,107.300000,124.600000,104.300000,124.900000,101.200000C125,100.100000,125.200000,99.100000,125.200000,98C125.300000,95.400000,123.100000,93.400000,120.200000,93.300000C116.800000,93.300000,113.400000,93.300000,110,93.300000Z" fill="rgb(0,0,0)" stroke="none" stroke-width="1"/><path id="ehh46vy8odcj30" d="M60.600000,93.100000C63.900000,93.100000,67.200000,93.100000,70.500000,93.200000C71.500000,93.200000,72.600000,93.400000,73.500000,93.900000C75.100000,94.700000,76.100000,96.200000,75.900000,98C75.400000,102.600000,74.600000,107.200000,72.900000,111.500000C72.700000,112,72.400000,112.500000,72.200000,113C71.400000,114.400000,70.400000,115,68.700000,115C63.100000,114.900000,57.500000,114.900000,51.900000,114.900000C48.800000,114.900000,46.900000,113.200000,46.500000,110.200000C46,106.200000,45.700000,102.100000,45.300000,98C45.100000,95.800000,46.800000,93.800000,49.100000,93.300000C49.700000,93.200000,50.300000,93.200000,50.800000,93.200000C54.100000,93,57.300000,93.100000,60.600000,93.100000Z" fill="rgb(0,196,125)" stroke="none" stroke-width="1"/><path id="ehh46vy8odcj31" d="M110,93.300000C113.400000,93.300000,116.800000,93.300000,120.200000,93.400000C123.100000,93.400000,125.300000,95.500000,125.200000,98.100000C125.200000,99.200000,125,100.200000,124.900000,101.300000C124.600000,104.300000,124.300000,107.300000,123.900000,110.400000C123.500000,113.600000,121.600000,115.200000,118.400000,115.200000C112.800000,115.200000,107.100000,115.100000,101.500000,115.100000C100.100000,115.100000,99.100000,114.500000,98.400000,113.400000C97,111.100000,96.300000,108.500000,95.800000,105.800000C95.300000,103.600000,95,101.300000,94.700000,99.100000C94.200000,95.700000,96.300000,93.400000,99.700000,93.400000C103.200000,93.300000,106.600000,93.300000,110,93.300000Z" fill="rgb(0,196,125)" stroke="none" stroke-width="1"/></g></g></g><g id="ehh46vy8odcj32"><path id="ehh46vy8odcj33" d="M132,131.900000C129,137.600000,124.200000,142,119.100000,144.900000C113.900000,147.900000,108.400000,149.600000,102.900000,150.500000C97.400000,151.500000,91.800000,151.600000,86.300000,151.300000C80.800000,151,75.500000,150.100000,70.200000,148.700000C75.600000,149.300000,80.900000,149.300000,86.200000,148.800000C91.500000,148.300000,96.700000,147.300000,101.600000,145.700000C106.500000,144.100000,111.100000,141.800000,114.900000,138.700000C118.700000,135.700000,121.500000,131.900000,123,127.700000L132,131.900000Z" fill="rgb(0,0,0)" stroke="none" stroke-width="1"/></g></g><path id="ehh46vy8odcj34" d="M135.200000,83.500000C146.500000,76.400000,144.400000,49.200000,131.700000,37.200000C123.300000,29.200000,116.900000,27.200000,114.900000,18.800000C113.400000,12.500000,121.518113,14.086388,126.800000,12.200000C126.800000,8.427224,82.100000,-14.600000,49.900000,18.800000C29.400000,40,35,63,39.400000,68.600000C41.600000,71.500000,49.700000,69.500000,61.500000,64.100000C129.700000,32.900000,120.900000,92.500000,135.200000,83.500000Z" fill="rgb(0,0,0)" stroke="none" stroke-width="1"/><g id="ehh46vy8odcj35_to" transform="translate(-4.891155,4.102687)"><path id="ehh46vy8odcj35" d="M117.367417,104.585791L116.114252,104.585791C113.949695,104.585791,112.240834,102.600497,112.240834,100.085791L112.240834,100.085791C112.240834,97.571085,113.949695,95.585791,116.114252,95.585791L117.367417,95.585791C119.531974,95.585791,121.240834,97.571085,121.240834,100.085791L121.240834,100.085791C121.126910,102.600497,119.418050,104.585791,117.367417,104.585791Z" transform="translate(0,0)" fill="rgb(0,0,0)" stroke="none" stroke-width="1"/></g><g id="ehh46vy8odcj36_to" transform="translate(-3.649679,5.979292)"><path id="ehh46vy8odcj36" d="M66.026582,102.332230L64.773418,102.332230C62.608861,102.332230,60.900000,100.346936,60.900000,97.832230L60.900000,97.832230C60.900000,95.317525,62.608861,93.332230,64.773418,93.332230L66.026582,93.332230C68.191139,93.332230,69.900000,95.317525,69.900000,97.832230L69.900000,97.832230C69.900000,100.346936,68.191139,102.332230,66.026582,102.332230Z" transform="translate(0,0)" fill="rgb(0,0,0)" stroke="none" stroke-width="1"/></g><path id="ehh46vy8odcj37" d="M49.900000,52.300000C49.900000,52.300000,38.400000,43.600000,40.700000,25.800000C40.700000,25.800000,23.600000,37.900000,37.700000,65.200000L49.900000,52.300000Z" fill="rgb(0,0,0)" stroke="none" stroke-width="1"/><path id="ehh46vy8odcj38" d="M55.200000,39.300000C55.200000,39.300000,48.200000,26.900000,57.600000,12.200000C57.600000,12.200000,39.100000,15.500000,40.800000,45.300000L55.200000,39.300000Z" fill="rgb(0,0,0)" stroke="none" stroke-width="1"/></g><g id="ehh46vy8odcj39"><path id="ehh46vy8odcj40" d="M43.500000,127.600000C42.500000,135.900000,44,144.500000,47.900000,152C47.900000,150.200000,47.900000,148.500000,47.900000,146.700000C50.100000,152.500000,53.200000,157.900000,56.900000,162.800000C56.700000,160.400000,56.600000,157.900000,56.400000,155.500000C58.300000,160.400000,61.300000,164.800000,65.200000,168.400000C63.900000,165.800000,63.400000,162.700000,64,159.800000C70.400000,166.900000,79.400000,171.600000,89,172.700000C87.400000,171,85.700000,169.300000,84.100000,167.600000C91.700000,168.500000,99.300000,169.400000,106.900000,170.400000C105.400000,169.200000,104,168.100000,102.500000,166.900000C106,166.500000,109.700000,167.400000,112.600000,169.400000C113.200000,166.700000,113.400000,164,113.300000,161.200000C116.300000,162.800000,118.600000,165.700000,119.600000,169C121.400000,163.800000,122.700000,158.400000,123.500000,152.900000C125.800000,155.600000,127,159.200000,126.800000,162.700000C129.700000,154,130.900000,144.700000,130.300000,135.500000C125.800000,141.900000,120.400000,147.800000,113.900000,152.200000C107.400000,156.600000,99.700000,159.400000,91.900000,159.600000C82.400000,159.900000,70.600000,159.900000,62.700000,154.800000C54.800000,149.700000,50.400000,139.600000,43.600000,133" fill="rgb(0,0,0)" stroke="none" stroke-width="1"/></g></g></g></g><g id="ehh46vy8odcj41"><g id="ehh46vy8odcj42"><path id="ehh46vy8odcj43" d="M188.200000,23.800000C193,23.800000,194.400000,25.300000,194.400000,30L194.400000,31C194.400000,35.800000,192.900000,37.200000,188.200000,37.200000L181.900000,37.200000C177.100000,37.200000,175.700000,35.700000,175.700000,31L175.700000,30.100000C175.700000,25.300000,177.200000,23.900000,181.900000,23.900000L188.200000,23.900000Z" fill="rgb(0,196,125)" stroke="none" stroke-width="1"/><path id="ehh46vy8odcj44" d="M190.700000,40.500000C193.200000,40.500000,193.900000,41.400000,193.900000,43.700000L193.900000,74.200000C193.900000,76.600000,193.200000,77.400000,190.700000,77.400000L179.300000,77.400000C176.800000,77.400000,176.100000,76.500000,176.100000,74.200000L176.100000,43.700000C176.100000,41.300000,176.800000,40.500000,179.300000,40.500000L190.700000,40.500000Z" fill="rgb(0,0,0)" stroke="none" stroke-width="1"/><path id="ehh46vy8odcj45" d="M198.300000,52.500000C198.300000,40.800000,205.200000,34,219.100000,34C229.100000,34,235.300000,38.700000,237.800000,45.800000C238.700000,48.300000,238.100000,49.400000,235.600000,50.300000L225.800000,53.500000C223.200000,54.400000,222.200000,53.800000,221.200000,51.300000C220.300000,49.100000,219.600000,48.600000,218.200000,48.600000C216.700000,48.600000,216,49.600000,216,51.500000L216,61.100000C216,63,216.700000,63.900000,218.200000,63.900000C219.700000,63.900000,220.300000,63.600000,221.200000,61.400000C222.200000,58.900000,223.200000,58.400000,225.800000,59.300000L235.900000,62.300000C238.300000,63,239.100000,64.600000,238.100000,67C234.900000,74.700000,228.200000,78.600000,218.100000,78.600000C204.600000,78.600000,198.100000,71.900000,198.100000,60L198.100000,52.500000Z" fill="rgb(0,0,0)" stroke="none" stroke-width="1"/><path id="ehh46vy8odcj46" d="M240.900000,52.400000C240.900000,40.800000,248.400000,34,261.700000,34C275.300000,34,282.600000,40.800000,282.600000,52.400000L282.600000,60.200000C282.600000,71.800000,275.300000,78.600000,261.700000,78.600000C248.300000,78.600000,240.900000,71.800000,240.900000,60.200000L240.900000,52.400000ZM264.900000,51.700000C264.900000,49.900000,263.800000,49,261.700000,49C259.700000,49,258.600000,49.900000,258.600000,51.700000L258.600000,61C258.600000,62.700000,259.700000,63.600000,261.700000,63.600000C263.800000,63.600000,264.900000,62.700000,264.900000,61L264.900000,51.700000Z" fill="rgb(0,0,0)" stroke="none" stroke-width="1"/><path id="ehh46vy8odcj47" d="M308.300000,34C321,34,327.300000,40.500000,327.300000,52.200000L327.300000,74.200000C327.300000,76.600000,326.600000,77.400000,324.100000,77.400000L312.700000,77.400000C310.200000,77.400000,309.500000,76.500000,309.500000,74.200000L309.500000,53C309.500000,50.700000,308.800000,50,306.600000,50C305.900000,50,305.400000,50,305.100000,50.100000C304.900000,50.200000,304.900000,50.300000,304.900000,50.400000L304.900000,74.200000C304.900000,76.600000,304.200000,77.400000,301.700000,77.400000L290.300000,77.400000C287.800000,77.400000,287.100000,76.500000,287.100000,74.200000L287.100000,42.200000C287.100000,39.300000,287.700000,38.200000,290.600000,37.200000C295.600000,35.100000,301.600000,34,308.300000,34Z" fill="rgb(0,0,0)" stroke="none" stroke-width="1"/></g></g><g id="ehh46vy8odcj48"><path id="ehh46vy8odcj49" d="M215.800000,141.200000C216.600000,143.600000,215.800000,144.700000,213.300000,144.700000L202,144.700000C197.900000,144.700000,196.400000,143.600000,195.800000,141L194.700000,136.900000L179.500000,136.900000L178.400000,141C177.700000,143.700000,176.400000,144.700000,172.600000,144.700000L161.200000,144.700000C158.700000,144.700000,158,143.600000,158.900000,141.200000L176.900000,90C177.600000,87.600000,178.700000,87.100000,181.300000,87.100000L193.300000,87.100000C195.800000,87.100000,196.900000,87.700000,197.700000,89.900000L215.800000,141.200000ZM188.900000,115.600000C188,112.600000,187.500000,108.300000,187.400000,106.100000L187.300000,104.400000L186.500000,104.400000C186.600000,108.400000,186.100000,112,185.200000,115.500000L183.400000,122.100000L190.600000,122.100000L188.900000,115.600000Z" fill="rgb(0,196,125)" stroke="none" stroke-width="1"/><path id="ehh46vy8odcj50" d="M245.200000,87.100000C258.500000,87.100000,267,94.800000,267,108.100000C267,121.300000,258.600000,128.800000,245.300000,128.800000L237.300000,128.800000L237.300000,141.100000C237.300000,143.800000,236.400000,144.700000,233.700000,144.700000L222,144.700000C219.300000,144.700000,218.400000,143.800000,218.400000,141.100000L218.400000,90.700000C218.400000,88,219.300000,87.100000,222,87.100000L245.200000,87.100000ZM242.900000,112.600000C249.100000,113.100000,249.100000,102.900000,242.900000,103.400000L237.300000,103.400000L237.300000,112.600000L242.900000,112.600000Z" fill="rgb(0,196,125)" stroke="none" stroke-width="1"/><path id="ehh46vy8odcj51" d="M310.500000,87.100000C313.200000,87.100000,314.100000,88,314.100000,90.700000L314.100000,99.800000C314.100000,102.500000,313.200000,103.400000,310.500000,103.400000L290.400000,103.400000L290.400000,107.600000L306,107.600000C308.700000,107.600000,309.600000,108.500000,309.600000,111.200000L309.600000,120.300000C309.600000,123,308.700000,123.900000,306,123.900000L290.400000,123.900000L290.400000,128.500000L311,128.500000C313.700000,128.500000,314.600000,129.400000,314.600000,132.100000L314.600000,141.300000C314.600000,144,313.700000,144.900000,311,144.900000L275.100000,144.900000C272.400000,144.900000,271.500000,144,271.500000,141.300000L271.500000,90.700000C271.500000,88,272.400000,87.100000,275.100000,87.100000L310.500000,87.100000Z" fill="rgb(0,196,125)" stroke="none" stroke-width="1"/></g></g><g id="ehh46vy8odcj52"><path id="ehh46vy8odcj53" d="M160,158.700000C164,158.700000,165.400000,160.700000,165.400000,164L165.400000,170.900000C165.400000,171.800000,165.200000,172.100000,164.500000,172.400000C163.400000,172.800000,161.900000,173.100000,160,173.100000C157.800000,173.100000,156.300000,172.800000,155.500000,172.100000C154.700000,171.400000,154.300000,170.400000,154.300000,168.900000C154.300000,165.800000,155.900000,164.800000,160.200000,164.800000C161.100000,164.800000,162.100000,164.900000,163.200000,165L163.200000,164C163.200000,162,162.400000,160.900000,160.100000,160.900000C158.600000,160.900000,157.500000,161.400000,156.800000,162.500000C156.500000,162.900000,156.400000,163,155.900000,162.800000L155.100000,162.400000C154.700000,162.200000,154.500000,161.900000,154.800000,161.500000C155.600000,159.600000,157.400000,158.700000,160,158.700000ZM163.100000,166.800000C161.700000,166.700000,160.600000,166.600000,159.800000,166.600000C157.400000,166.600000,156.600000,167.300000,156.600000,168.800000C156.600000,170.300000,157.300000,171,159.800000,171C161.100000,171,162.100000,170.900000,162.700000,170.700000C163,170.600000,163.100000,170.400000,163.100000,170.100000L163.100000,166.800000Z" fill="rgb(76,76,76)" stroke="none" stroke-width="1"/><path id="ehh46vy8odcj54" d="M174.500000,158.700000C178.100000,158.700000,179.800000,160.400000,179.800000,163.900000L179.800000,172C179.800000,172.500000,179.600000,172.600000,179.200000,172.600000L178.100000,172.600000C177.700000,172.600000,177.500000,172.500000,177.500000,172L177.500000,163.900000C177.500000,161.800000,176.400000,160.800000,174.200000,160.800000C173.100000,160.800000,172.100000,161,171.100000,161.300000C170.900000,161.400000,170.800000,161.500000,170.800000,161.800000L170.800000,172C170.800000,172.500000,170.700000,172.600000,170.200000,172.600000L169.100000,172.600000C168.700000,172.600000,168.500000,172.400000,168.500000,172L168.500000,161C168.500000,160.200000,168.700000,159.900000,169.500000,159.500000C170.900000,158.900000,172.600000,158.700000,174.500000,158.700000Z" fill="rgb(76,76,76)" stroke="none" stroke-width="1"/><path id="ehh46vy8odcj55" d="M194.100000,158.600000C197.900000,158.600000,199.700000,160.400000,199.700000,164L199.700000,170.800000C199.700000,171.700000,199.500000,172,198.800000,172.300000C197.700000,172.700000,196.200000,173,194.100000,173C191.900000,173,190.300000,172.700000,189.500000,171.900000C188.700000,171.200000,188.200000,170.100000,188.200000,168.700000C188.200000,165.600000,189.900000,164.500000,194.200000,164.500000C194.400000,164.500000,195.200000,164.600000,196.700000,164.600000L196.700000,163.900000C196.700000,162.200000,196,161.300000,194.100000,161.300000C192.800000,161.300000,191.900000,161.700000,191.300000,162.600000C190.900000,163.200000,190.800000,163.200000,190.200000,163L189.100000,162.600000C188.500000,162.300000,188.400000,161.900000,188.700000,161.400000C189.600000,159.500000,191.400000,158.600000,194.100000,158.600000ZM196.700000,167.200000C194.900000,167.100000,193.900000,167.100000,193.800000,167.100000C191.900000,167.100000,191.300000,167.700000,191.300000,168.800000C191.300000,170,191.900000,170.600000,193.800000,170.600000C194.900000,170.600000,195.800000,170.500000,196.400000,170.400000C196.600000,170.300000,196.700000,170.200000,196.700000,170L196.700000,167.200000Z" fill="rgb(58,58,58)" stroke="none" stroke-width="1"/><path id="ehh46vy8odcj56" d="M209.300000,158.600000C209.900000,158.600000,210.100000,158.800000,210.100000,159.400000L210.100000,160.600000C210.100000,161.200000,209.900000,161.400000,209.300000,161.400000L208.400000,161.400000C207.400000,161.400000,206.600000,161.500000,205.900000,161.700000C205.700000,161.700000,205.600000,161.800000,205.600000,162L205.600000,171.800000C205.600000,172.400000,205.400000,172.600000,204.800000,172.600000L203.400000,172.600000C202.800000,172.600000,202.600000,172.400000,202.600000,171.800000L202.600000,160.900000C202.600000,160.100000,202.800000,159.700000,203.600000,159.400000C204.900000,158.900000,206.500000,158.700000,208.500000,158.600000L209.300000,158.600000Z" fill="rgb(58,58,58)" stroke="none" stroke-width="1"/><path id="ehh46vy8odcj57" d="M214,153.100000C214.600000,153.100000,214.800000,153.300000,214.800000,153.900000L214.800000,159C216.100000,158.700000,217.100000,158.600000,218,158.600000C221.700000,158.600000,223.500000,160.400000,223.500000,163.900000L223.500000,167.500000C223.500000,171.200000,221.500000,173.100000,217.600000,173.100000C215.700000,173.100000,214.200000,172.800000,212.800000,172.300000C212,171.900000,211.800000,171.700000,211.800000,170.900000L211.800000,154C211.800000,153.400000,212,153.200000,212.600000,153.200000L214,153.200000ZM220.400000,164C220.400000,162.300000,219.400000,161.400000,217.500000,161.400000C216.600000,161.400000,215.700000,161.600000,214.800000,161.900000L214.800000,169.700000C214.800000,169.800000,214.900000,169.900000,215,170C215.600000,170.200000,216.300000,170.300000,217.300000,170.300000C219.400000,170.300000,220.400000,169.400000,220.400000,167.400000L220.400000,164Z" fill="rgb(58,58,58)" stroke="none" stroke-width="1"/><path id="ehh46vy8odcj58" d="M233.300000,153.100000C233.900000,153.100000,234.100000,153.300000,234.100000,153.900000L234.100000,155.100000C234.100000,155.700000,233.900000,155.900000,233.300000,155.900000C231.100000,155.900000,230.300000,156.600000,230.300000,158.600000L230.300000,158.900000L233.300000,158.900000C233.900000,158.900000,234.100000,159.100000,234.100000,159.700000L234.100000,160.900000C234.100000,161.500000,233.900000,161.700000,233.300000,161.700000L230.300000,161.700000L230.300000,171.700000C230.300000,172.300000,230.100000,172.500000,229.500000,172.500000L228.100000,172.500000C227.500000,172.500000,227.300000,172.300000,227.300000,171.700000L227.300000,161.700000L225.700000,161.700000C225.100000,161.700000,224.900000,161.500000,224.900000,160.900000L224.900000,159.700000C224.900000,159.100000,225.100000,158.900000,225.700000,158.900000L227.300000,158.900000L227.300000,158.600000C227.300000,154.900000,229.200000,153.100000,233.100000,153L233.300000,153Z" fill="rgb(58,58,58)" stroke="none" stroke-width="1"/><path id="ehh46vy8odcj59" d="M235.200000,163.900000C235.200000,160.600000,237.400000,158.600000,241.300000,158.600000C245.200000,158.600000,247.400000,160.600000,247.400000,163.900000L247.400000,167.800000C247.400000,171.100000,245.200000,173.100000,241.300000,173.100000C237.400000,173.100000,235.200000,171.100000,235.200000,167.800000L235.200000,163.900000ZM244.300000,163.900000C244.300000,162.300000,243.200000,161.400000,241.300000,161.400000C239.400000,161.400000,238.300000,162.300000,238.300000,163.900000L238.300000,167.800000C238.300000,169.400000,239.400000,170.300000,241.300000,170.300000C243.200000,170.300000,244.300000,169.400000,244.300000,167.800000L244.300000,163.900000Z" fill="rgb(58,58,58)" stroke="none" stroke-width="1"/><path id="ehh46vy8odcj60" d="M256.100000,158.600000C259.800000,158.600000,261.600000,160.500000,261.600000,163.900000L261.600000,171.800000C261.600000,172.400000,261.400000,172.600000,260.800000,172.600000L259.400000,172.600000C258.800000,172.600000,258.600000,172.400000,258.600000,171.800000L258.600000,164C258.600000,162.300000,257.700000,161.400000,255.700000,161.400000C254.900000,161.400000,254,161.500000,253.200000,161.700000C253.100000,161.800000,253,161.800000,253,162L253,171.800000C253,172.400000,252.800000,172.600000,252.200000,172.600000L250.800000,172.600000C250.200000,172.600000,250,172.400000,250,171.800000L250,161C250,160.200000,250.200000,159.800000,251,159.500000C252.400000,158.900000,254.100000,158.600000,256.100000,158.600000Z" fill="rgb(58,58,58)" stroke="none" stroke-width="1"/><path id="ehh46vy8odcj61" d="M267.900000,155.800000C268.500000,155.800000,268.700000,156,268.700000,156.600000L268.700000,159L271.700000,159C272.300000,159,272.500000,159.200000,272.500000,159.800000L272.500000,161C272.500000,161.600000,272.300000,161.800000,271.700000,161.800000L268.700000,161.800000L268.700000,167.100000C268.700000,168.300000,268.900000,169.200000,269.300000,169.500000C269.700000,169.900000,270.500000,170.100000,271.600000,170.100000C272.200000,170.100000,272.400000,170.300000,272.400000,170.900000L272.400000,172.100000C272.400000,172.700000,272.200000,172.900000,271.600000,172.900000C269.400000,173,267.800000,172.600000,266.900000,171.700000C266,170.900000,265.500000,169.300000,265.500000,167.100000L265.500000,161.700000L263.700000,161.700000C263.100000,161.700000,262.900000,161.500000,262.900000,160.900000L262.900000,159.700000C262.900000,159.100000,263.100000,158.900000,263.700000,158.900000L265.500000,158.900000L265.500000,156.500000C265.500000,155.900000,265.700000,155.700000,266.300000,155.700000L267.900000,155.700000Z" fill="rgb(58,58,58)" stroke="none" stroke-width="1"/><path id="ehh46vy8odcj62" d="M279.800000,158.600000C282.600000,158.600000,284.500000,159.500000,285.400000,161.400000C285.700000,161.900000,285.500000,162.300000,285,162.600000L283.800000,163.100000C283.200000,163.300000,283,163.300000,282.700000,162.700000C282.200000,161.800000,281.300000,161.300000,279.900000,161.300000C278.200000,161.300000,277.400000,161.800000,277.400000,162.700000C277.400000,163.900000,278.200000,164.100000,280.500000,164.300000C284.100000,164.600000,285.900000,165.600000,285.900000,168.500000C285.900000,171.200000,283.900000,172.900000,280.200000,172.900000C277.100000,172.900000,275.100000,171.800000,274.300000,169.700000C274.100000,169.100000,274.300000,168.800000,274.800000,168.600000L276,168.200000C276.500000,168,276.800000,168.100000,277.100000,168.700000C277.500000,169.700000,278.500000,170.100000,280.100000,170.100000C282,170.100000,282.900000,169.600000,282.900000,168.500000C282.900000,167.300000,282.100000,167.100000,279.700000,166.800000C278.500000,166.700000,277.800000,166.600000,276.700000,166.200000C276.200000,166,275.800000,165.800000,275.500000,165.500000C274.900000,164.900000,274.400000,163.900000,274.400000,162.600000C274.400000,160.200000,276.300000,158.600000,279.800000,158.600000Z" fill="rgb(58,58,58)" stroke="none" stroke-width="1"/><path id="ehh46vy8odcj63" d="M300.400000,153.500000C304,153.500000,306,154.800000,307.300000,157.500000C307.500000,157.900000,307.400000,158.200000,306.900000,158.400000L305.800000,158.900000C305.300000,159.100000,305.100000,159.100000,304.900000,158.600000C304,156.800000,302.700000,155.900000,300.400000,155.900000C297.500000,155.900000,296,156.900000,296,158.900000C296,160.300000,296.800000,161,298.200000,161.400000C299.200000,161.700000,299.800000,161.800000,301.100000,161.900000C302.600000,162.100000,303.500000,162.200000,304.800000,162.700000C305.500000,163,306,163.300000,306.400000,163.600000C307.200000,164.300000,307.800000,165.500000,307.800000,167.200000C307.800000,170.800000,305.200000,172.900000,300.500000,172.900000C296.600000,172.900000,294.500000,171.500000,293.300000,168.400000C293.100000,167.900000,293.200000,167.700000,293.700000,167.500000L294.800000,167.100000C295.200000,166.900000,295.500000,167,295.700000,167.500000C296.600000,169.500000,298.100000,170.500000,300.500000,170.500000C303.700000,170.500000,305.200000,169.400000,305.200000,167.200000C305.200000,166.100000,304.700000,165.400000,303.800000,165C302.800000,164.600000,302.100000,164.500000,300.600000,164.300000C299.200000,164.200000,298.600000,164.100000,297.400000,163.700000C296.800000,163.600000,296.300000,163.400000,295.900000,163.100000C294.700000,162.400000,293.500000,161.200000,293.600000,158.900000C293.400000,155.800000,296,153.500000,300.400000,153.500000Z" fill="rgb(76,76,76)" stroke="none" stroke-width="1"/><path id="ehh46vy8odcj64" d="M309.800000,164.300000C309.800000,160.700000,311.900000,158.700000,315.700000,158.700000C319.600000,158.700000,321.600000,160.900000,321.600000,164.100000L321.600000,165.600000C321.600000,166.200000,321.300000,166.500000,320.600000,166.500000L312,166.500000L312,167.800000C312,169.800000,313.200000,171,315.500000,171C317.200000,171,318.400000,170.400000,319.200000,169.200000C319.500000,168.800000,319.800000,168.700000,320.200000,169L320.900000,169.400000C321.300000,169.600000,321.400000,170,321.100000,170.400000C320.100000,172.200000,318.200000,173.100000,315.400000,173.100000C311.500000,173.100000,309.600000,171,309.600000,167.600000L309.600000,164.300000ZM319.300000,164C319.300000,161.900000,318,160.700000,315.700000,160.700000C313.400000,160.700000,312.100000,161.900000,312.100000,164L312.100000,164.800000L319.300000,164.800000L319.300000,164Z" fill="rgb(76,76,76)" stroke="none" stroke-width="1"/><path id="ehh46vy8odcj65" d="M330.900000,158.700000C331.400000,158.700000,331.500000,158.900000,331.500000,159.300000L331.500000,160.200000C331.500000,160.600000,331.400000,160.800000,330.900000,160.800000L330,160.800000C328.900000,160.800000,327.900000,161,327,161.200000C326.800000,161.300000,326.600000,161.500000,326.600000,161.700000L326.600000,172C326.600000,172.500000,326.500000,172.600000,326,172.600000L324.900000,172.600000C324.500000,172.600000,324.300000,172.400000,324.300000,172L324.300000,160.900000C324.300000,160.100000,324.500000,159.800000,325.300000,159.400000C326.600000,158.900000,328.200000,158.600000,330.100000,158.600000L330.900000,158.600000Z" fill="rgb(76,76,76)" stroke="none" stroke-width="1"/><path id="ehh46vy8odcj66" d="M344.300000,159C344.900000,159,345,159.100000,344.800000,159.700000L339.700000,172C339.500000,172.400000,339.300000,172.600000,338.800000,172.600000L338.100000,172.600000C337.700000,172.600000,337.400000,172.400000,337.200000,172L332.100000,159.700000C331.900000,159.100000,332,159,332.600000,159L333.400000,159C334.100000,159,334.300000,159.100000,334.500000,159.600000L337.600000,167.200000C337.900000,168.200000,338.300000,169.600000,338.300000,169.700000L338.400000,169.700000C338.400000,169.600000,338.700000,168.100000,339.100000,167.200000L342.200000,159.600000C342.400000,159.100000,342.600000,159,343.300000,159L344.300000,159Z" fill="rgb(76,76,76)" stroke="none" stroke-width="1"/><path id="ehh46vy8odcj67" d="M348.100000,154.100000C349.100000,154.100000,349.400000,154.400000,349.400000,155.400000L349.400000,155.600000C349.400000,156.500000,349.100000,156.900000,348.100000,156.900000L347.900000,156.900000C347,156.900000,346.600000,156.600000,346.600000,155.600000L346.600000,155.400000C346.600000,154.500000,346.900000,154.100000,347.900000,154.100000L348.100000,154.100000ZM348.500000,159C349,159,349.100000,159.100000,349.100000,159.600000L349.100000,172C349.100000,172.500000,349,172.600000,348.500000,172.600000L347.400000,172.600000C346.900000,172.600000,346.800000,172.500000,346.800000,172L346.800000,159.700000C346.800000,159.200000,346.900000,159.100000,347.400000,159.100000L348.500000,159.100000Z" fill="rgb(76,76,76)" stroke="none" stroke-width="1"/><path id="ehh46vy8odcj68" d="M352,163.900000C352,160.600000,354,158.600000,357.900000,158.600000C360.900000,158.600000,362.700000,159.800000,363.500000,162.100000C363.700000,162.500000,363.500000,162.800000,363.100000,163L362.200000,163.300000C361.800000,163.500000,361.500000,163.400000,361.300000,162.900000C360.800000,161.400000,359.700000,160.700000,357.900000,160.700000C355.700000,160.700000,354.500000,161.800000,354.500000,163.800000L354.500000,167.800000C354.500000,169.800000,355.700000,170.900000,357.900000,170.900000C359.700000,170.900000,360.800000,170.100000,361.300000,168.600000C361.500000,168.100000,361.700000,168,362.200000,168.200000L363.100000,168.500000C363.500000,168.700000,363.700000,169,363.500000,169.400000C362.600000,171.800000,360.700000,173,357.700000,173C353.900000,173,352,171.100000,352,167.700000L352,163.900000Z" fill="rgb(76,76,76)" stroke="none" stroke-width="1"/><path id="ehh46vy8odcj69" d="M365.500000,164.300000C365.500000,160.700000,367.600000,158.700000,371.400000,158.700000C375.300000,158.700000,377.300000,160.900000,377.300000,164.100000L377.300000,165.600000C377.300000,166.200000,377,166.500000,376.300000,166.500000L367.700000,166.500000L367.700000,167.800000C367.700000,169.800000,368.900000,171,371.200000,171C372.900000,171,374.100000,170.400000,374.900000,169.200000C375.200000,168.800000,375.500000,168.700000,375.900000,169L376.600000,169.400000C377,169.600000,377.100000,170,376.800000,170.400000C375.800000,172.200000,373.900000,173.100000,371.100000,173.100000C367.200000,173.100000,365.300000,171,365.300000,167.600000L365.300000,164.300000ZM375.100000,164C375.100000,161.900000,373.800000,160.700000,371.500000,160.700000C369.200000,160.700000,367.900000,161.900000,367.900000,164L367.900000,164.800000L375.100000,164.800000L375.100000,164Z" fill="rgb(76,76,76)" stroke="none" stroke-width="1"/></g></svg>